<?xml version="1.0" encoding="utf-8"?>
<!-- Generator: Adobe Illustrator 19.0.0, SVG Export Plug-In . SVG Version: 6.00 Build 0)  -->
<svg version="1.1" id="Capa_1" xmlns="http://www.w3.org/2000/svg" xmlns:xlink="http://www.w3.org/1999/xlink" x="0px" y="0px"
	 viewBox="0 0 800 269.8" style="enable-background:new 0 0 800 269.8;" xml:space="preserve">
<style type="text/css">
	.st0{fill:#B4C8E6;stroke:#E5B449;stroke-width:0.25;stroke-miterlimit:10;}
	.st1{fill:#B4C8E6;}
	.st2{stroke:#FFFFFF;stroke-width:0.25;stroke-miterlimit:10;}
</style>
<g id="XMLID_1_">
	<g id="XMLID_2641_">
		<g id="XMLID_547_">
			<g id="XMLID_3130_">
				<g id="XMLID_3131_">
					<g id="XMLID_546_">
						<path id="XMLID_3199_" class="st0" d="M351.3,119.5c-3.5-3.4-7,0.6-10.7-0.1c-0.8,2.5,0.6,4.2,1.8,5.9
							c3.3,4.8,6.6,9.5,9.8,14.3c1.7,2.6,3.2,5.4,4.9,8.2c0,1.7,0,3.5,0,5.4c0,2.8-1,4.6-3.6,6.5c-3.3,2.3-6.5,3.5-10.5,3.2
							c-2.2-0.2-4.4,0-6.2,0c-3.6-1.9-6.9-3.4-10.1-5.2c-4-2.3-6.9-6-10.2-9c-5.1-4.6-8.4-10.5-11.8-16.4c-0.7-1.3-0.9-3-1.3-4.5
							c-0.6-2.5-1.4-4.7-4.2-5.4c-1.5-0.4-2.8-1.6-4.3-1.8c-1.2-0.2-2.6,0.6-3.8,1c0,7.1-0.1,13.6,0.1,20.1c0.1,2.4-0.7,4.9,0.9,7.4
							c1.1,1.8-0.9,4.7,1.3,6.7c0,7.7,3.5,14.5,5.8,21.6c1.6,5.2,4.6,10,7.4,14.7c2.4,4.1,4.6,8.3,8,11.8c1.3,1.3,2.3,2.7,3.4,4.2
							c0.9,1.3,1.8,2.6,2.7,4c1.4-2.5,3.1-4.8,4-7.4c1.9-5.3,6.1-8.3,10.1-11.6c2.2-1.8,4.5-3.4,6.8-5.2c4-3.1,4.9-8,6.5-12.4
							c1.5-3.9,3.7-7.3,6.9-10c2.8-2.3,6.2-1.4,9.3-1.6c3.8,2.6,7.1,5.4,9.6,9.4c2.1,3.3,4.9,6.3,7.8,9c2.3,2.2,5,4.1,7.8,5.5
							c1.9,1,4.1,1.9,6.5,1.9c2.7,0,5.3,0.2,8,0.8c3,0.6,5.8,1.3,8.9,3.3c0.3,1.2,0.9,3.2,1.5,5.4c-2.1,1.5-4,2.8-6.1,4.3
							c-2.3-2.9-5.4-2.7-8.4-2.7c-9.4-0.2-17.6-3.3-24.3-10c-4.1-4.1-7.9-8.4-11.1-13.3c-0.9-1.4-2.2-2.4-3.7-4.1
							c-1.4,3-3.1,5.4-3.6,8c-1,4.8-3.8,8.6-6.3,12.5c-1.3,2-3.6,3.7-5.8,4.7c-2.5,1.1-4.3,3.1-6.4,4.6c-4.2,3.1-6.4,7.9-7.3,13
							c-0.4,2.1,2.6,7.7,4.3,9.1c7.8,6.2,16.6,10.9,25.7,14.9c5.4,2.4,11.1,3.9,16.7,5.5c4.9,1.4,10.1,1.3,14.9,3
							c1.7,0.6,3.7,0.1,5.9,0.1c2.2-2.8,5.2-5.2,8.7-6.4c3.9-1.3,7,1.3,10.5,3.6c0.6,1.1,1.4,2.8,2.5,4.8c0,2.2,0,4.8,0,7.4
							c-6.8,7.6-7.7,8.3-16.4,6c-1.1-1.3-2.5-3-3.3-4c-8.2-0.9-15.5-1.3-22.5-3.7c-4.3,0.9-7.7-2.8-11.9-2.2
							c-4.2-3.1-9.6-3.8-14.2-6.1c-7-3.5-13.7-7.6-20.2-11.8c-2.9-1.8-5.4-4.2-7.9-6.6c-4-3.8-8-7.8-11.9-11.8
							c-5.7-5.9-10.5-12.4-14.6-19.6c-2.1-3.6-4.2-7.2-5.9-11c-3.1-6.9-5.5-14.1-7.5-21.4c-1.4-5.1-1.4-10.4-3.2-15.4
							c-0.3-1,0-2.2,0-3.3c0-7.4-0.1-14.9,0.1-22.3c0.1-2.4-0.8-4.9,0.9-7.4c1.2-1.8-0.9-4.7,1.3-6.7c0.1-6.1,2.5-11.5,4.4-17.1
							c2.7-7.9,6.1-15.4,10.6-22.4c2.1-3.3,4.1-6.5,6.3-9.7c4.8-7,10.6-13,16.7-18.7c7-6.5,15-11.7,23.2-16.6
							c8.9-5.4,19.1-7.9,28.6-11.8c4.8,0,9.4-1.7,14.1-2.5c3.8-0.6,7.5-0.7,11.4-1c2.5-2.2,5.1-4.4,7.4-6.5c2.2,0,4.1,0,5.9,0
							c1.8,0.9,3.6,1.9,5.7,2.9c0.9,1.7,1.8,3.5,3.1,6c-0.4,1.9-0.8,4.5-1.3,7.1c-5,5-5,5-13.9,5c-1.8-1.3-3.8-2.8-6.2-4.6
							c-17.6,0-34.2,5.6-50.5,14.3c2.8,0.7,5.3,0.3,7.7,0.4c2.4,0.1,4.8,0,7.3,0c2.2,1.5,5.5,2,5.4,5.8c2.7,3.2,0.2,6-0.7,8.8
							c-1.7,5.1-5,9-9.7,12.8c1,0.4,1.8,0.7,2.6,1c-0.2,0.2-0.4,0.4-0.6,0.5c1.9,0,3.7,0,4.6,0c6.3-2.5,11.4-4.1,17.7-2.6
							c5.1,1.3,9.7,3.3,13.5,6.4c5.4,4.3,9.3,10,8.3,17.4c-1.7,5.6-6.4,7.4-11.1,8.9c-4.1,1.3-8.3,2.7-12.6,3.3
							c-4.5,0.6-7.9,3.5-11.9,5.1c-1,0.4-1.6,1.8-2.4,2.9c-2,2.9-3.6,6.2-6.1,8.5c-1.7,1.7-3.7,4-6.8,3.7
							C353.5,118.2,352.7,118.9,351.3,119.5z M359.6,44.1c-3.2,2.5-6,1.3-8.6,1.5c-2.6,0.2-5.2,0.2-7.8,0c-2.6-0.2-5.2-0.8-7.4-1.1
							c-2.2,1.7-4.3,2.8-6,4.4c-6.2,6.1-12.5,12.2-17.4,19.5c-6.2,9.1-11.3,18.7-15.2,28.8c-1.5,4-3.1,8.2-2.6,12.7
							c3.3,1,6.6,1.6,9.6,2.9c3.7,1.6,7,4.5,8,8.2c1.6,6.1,4.1,11.5,8.1,16.2c3.1,3.6,6.5,6.9,10.2,9.9c2.8,2.3,6.2,3.8,9.3,5.7
							c1.9,0,3.7,0,5.6,0c0.5-0.5,1.1-1.1,1.5-1.5c-2.2-4.8-5.4-8.9-8.3-13.3c-3.4-5.1-7.9-9.8-8.9-16.4c-0.3-1.8-1-3.2,0.4-5
							c1-1.3,1.5-3.1,2.1-4.4c7-3.7,14.1-4.6,21.3-4.1c1.4-2.1,2.5-3.9,3.7-5.7c3.3-4.8,7.4-8.5,12.8-11.3c7-3.5,14.6-4.3,21.9-6.4
							c1.5-0.4,2.7-0.7,3.3-2.2c-1.6-5.3-6.2-7.7-10.5-9.9c-4.2-2.2-8.7-1.9-13.2,0.3c-3.4,1.7-8.1,2.2-11.6,1.5
							c-2.3-0.5-4.8-1-6.5-3.1c-1.2-1.4-2.6-2.7-3.9-3.9c0-3.2,0-6.3,0-8.9C352.9,53.9,358.8,51.5,359.6,44.1z"/>
						<path id="XMLID_3196_" class="st0" d="M372,132.5c-0.7-0.7-1.6-1.6-2.6-2.6c0-1.5,0-2.9,0-4.5c0.9-0.9,1.8-1.7,3-2.9
							c43,0,86.3,0,129.7,0c0-6.1,0-12,0-17.8c-2.3-2.3-4.5-4.5-6.7-6.7c-1.3-4.4-1.7-8.5,0.6-13.2c3.6-4.4,8-8.7,16.4-6.2
							c2.9,1.4,7,3.2,8.7,8.4c0,2.3,0,5.3,0,8c-2.1,3.5-3,7.7-7.6,8.3c0,8.8,0,17.1,0,24.9c-1,1.7-1.7,2.9-2.5,4.3
							C464.8,132.5,418.5,132.5,372,132.5z M506.2,95.9c1.1,0,2.2,0,3.3,0c0.9-0.9,1.8-1.8,2.7-2.7c0-1.6,0-3.2,0-4.6
							c-1.8-2.4-4.1-1.4-5.6-1.5c-1.3,1.1-2.3,1.9-3.2,2.6c0,1.3,0,2.4,0,3.5C504.4,94.1,505.3,95,506.2,95.9z"/>
						<path id="XMLID_3193_" class="st0" d="M366.1,152.1c0-1.2,0-2.1,0-3.2c1.3-1.2,2.6-2.4,4.3-4c43.5,0,87.5,0,131.4,0
							c6.4-9.4,16.4-10.9,24.7-0.8c0.5,1.7,1.1,3.3,1.4,5c0.2,1.6,0.1,3.3,0.1,4.9c-2,4.1-3.8,8.2-9.2,10c-1.4,0-3.6-0.2-5.8,0
							c-3.1,0.3-5.6-0.9-7.6-3.2c-1.3-1.4-2.6-2.9-4.1-4.7c-41.6,0-83.8,0-126,0.1C371.4,156.2,368.5,155.3,366.1,152.1z
							 M517.7,147.6c-1.3-0.5-2.4-1-3.4-1.5c-1.4,0.8-2.7,1.7-4.1,2.5c0,1.7,0,3.3,0,4.9c0.5,0.5,1,1.1,1.5,1.6c1.5,0,3,0,3.5,0
							c1.7-1.3,2.9-2.1,4.1-3C518.7,150.5,518.3,149.2,517.7,147.6z"/>
						<path id="XMLID_3190_" class="st0" d="M462.2,171.2c-0.8,9.7,1.8,19.3,1,29.3c3.6,0,7.2,0,11,0c2-3.5,4.6-6.7,9-8.6
							c12.7-1.7,19.1,5.3,17.9,16.9c-3.5,6.3-3.5,6.3-9.9,10.1c-3.3-0.4-7-0.8-10.6-1.2c-2-2.4-4.7-3.9-5.7-6.9
							c-6.7,0-13.4,0-20.2,0c-0.8-0.9-1.7-1.9-2.9-3.1c0-9.1,0-18.5,0-28c-20.6,0-41,0-61.3,0c-1.5-0.9-2.9-1.7-4.3-2.5
							c0-2.1,0-4.1,0-6.2c1.9-2,4.2-2.7,7.1-2.7c20.5,0.1,40.9,0.1,61.4,0C457.5,168.4,459.7,169,462.2,171.2z M486.1,200.9
							c-1,0.9-2,1.8-2.8,2.6c0,1.2,0,2.3,0,2.1c1.3,2,2.2,3.2,3,4.4c1.8-0.7,3.2-1.3,4.6-1.8c0.5-1.2,1-2.3,1.4-3.3
							c-0.9-1.4-1.7-2.7-2.5-4.1C488.6,200.9,487.5,200.9,486.1,200.9z"/>
						<path id="XMLID_3187_" class="st0" d="M445.3,100.4c0-8.9-0.9-17.4,0.3-25.6c1.2-8.5,0.2-16.8,1-25.3
							c-7.7-4.3-10.7-10.5-7.7-19.3c2.5-2.2,5.1-4.6,7.5-6.8c3.2,0,5.8,0,8.4,0c6.3,3.9,6.3,3.9,9.1,8.9c1.9,8.3-1.6,13.6-8.5,16.9
							c0,7.2-0.8,14.2,0.2,20.9c1.6,10.5,0.3,20.9,1,31.3c0.2,3.8-1.1,6.6-4,9c-20.7,0-41.5,0-62.6,0c-0.7-0.8-1.5-1.8-2.6-3.1
							c0-1,0-2.4,0-4.3c0.8-0.6,1.8-1.4,3.3-2.6c8.5,0,17.8,0,27,0C426.9,100.4,436.1,100.4,445.3,100.4z M456.1,36.7
							c-0.5-3.7-2.8-4.8-5.4-5.5c-1,0.5-1.9,1-3.2,1.6c-0.4,1.7-0.9,3.7-1.2,5c1.3,1.6,2.1,2.6,2.8,3.4c1.4,0,2.5,0,3.9,0
							C454,39.7,455.2,38.1,456.1,36.7z"/>
						<path id="XMLID_3144_" class="st0" d="M410.4,74.7c-0.4,0-1.3,0-2.5,0c-1.1-1.3-2.2-2.7-3.9-4.7c0-10.8,0-22.7,0.1-34.5
							c0-1.7,0.7-3.4,1.2-5.3c2-0.5,4-1,5.8-1.5c1.3,1.2,2.2,2.1,3.1,3c0,13.4,0,26.7,0,40.3C413.2,72.7,412.1,73.4,410.4,74.7z"/>
						<path id="XMLID_3142_" class="st0" d="M371.5,211.6c1.2-1.7,2.5-3.5,3.7-5.2c9.3,0,18.2,0,27.5,0c1.2,1.7,2.5,3.6,3.6,5.3
							c-1.6,4.7-4.7,6.1-9.2,5.9c-6.9-0.2-13.7-0.1-19.6-0.1C374,216.5,372.4,214.6,371.5,211.6z"/>
						<path id="XMLID_3139_" class="st0" d="M399.6,59.7c-0.8,0.8-1.2,1.2-1.5,1.5c-2,0-4,0-5.8,0c-2.3-2.1-2.8-4.6-2.7-7.4
							c0.1-5.7,0-11.5,0.1-17.2c0-2.1,0.6-4.1,0.9-6.3c2.1-0.6,4-1.1,6.1-1.7c0.9,1.3,1.8,2.4,3,4C399.6,41.1,399.6,50.4,399.6,59.7
							z"/>
						<path id="XMLID_3138_" class="st0" d="M401.5,243.2c-8.1,0-15.9,0-24,0c-1.1-1.6-2.4-3.3-3.6-5c0.4-0.5,0.9-0.8,1.1-1.3
							c1-3.4,2.6-4.8,5.7-4.8c6.5-0.1,13,0,19.3,0.2c3.9,0.2,3.7,3.8,5.1,6.1C403.9,239.9,402.6,241.7,401.5,243.2z"/>
						<path id="XMLID_3137_" class="st0" d="M414.7,229.8c-8.3,0-16.4,0-24.9,0c-0.8-1.5-1.8-3.1-2.8-4.9c0.9-1.8,1.8-3.5,2.6-5.1
							c8.5,0,16.6,0,25.2,0c0.5,0.7,1.2,1.7,2.4,3.4c0,0.6,0,2.2,0,3.7C416.3,228,415.5,228.9,414.7,229.8z"/>
						<path id="XMLID_3133_" class="st0" d="M376.1,51.8c0-6.7,0-13.3,0-20.2c0.9-0.8,1.8-1.6,3-2.6c1.3,0,2.9,0,4.4,0
							c2.3,2.1,2.8,4.6,2.7,7.4c-0.1,4.6,0,9.2,0,13.9c-0.8,1.3-1.5,2.7-2.4,4.1c-1.7,0-3.3,0-5,0C377.9,53.7,377,52.8,376.1,51.8z"
							/>
					</g>
				</g>
			</g>
			<g id="XMLID_548_">
				<path id="XMLID_549_" class="st0" d="M607,145.6l-0.4,9.6h-38c0.4-8.8,0.6-18.7,0.6-29.7c0-10.6-0.2-19.6-0.6-27.1h36.2
					l-0.5,9.5c-8.9-0.5-17-0.7-24.3-0.7c0.3,4,0.4,8.8,0.4,14.3c6.2,0,12.9-0.2,19.9-0.5v9.1c-7-0.3-13.6-0.4-19.9-0.4
					c0,5.9,0.1,11.4,0.4,16.6C589,146.3,597.7,146.1,607,145.6z"/>
				<path id="XMLID_554_" class="st0" d="M649.1,146l-0.8,8.3c-2.7,1.4-6.4,2.1-11,2.1c-7.7,0-13.6-2.1-17.7-6.3
					c-4.1-4.2-6.2-9.2-6.2-15.1c0-6.1,2.2-11.4,6.5-16c4.3-4.5,10.2-6.8,17.7-6.8c3.7,0,6.9,0.4,9.8,1.2l-1.5,8.9
					c-2.7-1.1-5.8-1.7-9.2-1.7c-3.6,0-6.4,1.2-8.5,3.7c-2.1,2.5-3.1,5.5-3.1,9.2c0,4,1.2,7.3,3.7,10s6,4.1,10.5,4.1
					C641.9,147.8,645.2,147.2,649.1,146z"/>
				<path id="XMLID_559_" class="st0" d="M699,133.5c0,7.3-2.3,13-6.9,17.2s-10,6.2-16.3,6.2c-5.9,0-11.1-1.9-15.3-5.6
					c-4.3-3.8-6.4-9.1-6.4-15.9c0-7.3,2.3-13.1,7-17.3c4.6-4.2,10.1-6.2,16.3-6.2c5.9,0,11,1.9,15.2,5.7
					C696.9,121.3,699,126.7,699,133.5z M687.4,134.8c0-4.2-1-7.7-3-10.6c-2-2.9-4.7-4.3-7.9-4.3c-3.2,0-5.7,1.3-7.7,4
					c-2,2.7-3,6-3,10c0,4.2,1,7.8,3,10.6c2,2.9,4.7,4.3,7.9,4.3c3.2,0,5.7-1.3,7.7-4C686.4,142.2,687.4,138.8,687.4,134.8z"/>
				<path id="XMLID_786_" class="st0" d="M747.9,155.1l-10.6,0.3c-0.2-1-0.3-2.1-0.3-3.2h-0.7c-3.3,2.8-7.5,4.1-12.5,4.1
					c-5.7,0-10.2-2-13.6-6.1c-3.4-4-5-8.8-5-14.4c0-6.4,1.8-11.9,5.5-16.6c3.7-4.7,8.7-7.1,15.3-7.1c4.2,0,7.4,0.8,9.5,2.3h0.6
					c0-6.9-0.3-13.8-1-20.7l12.6-0.3c-0.5,6.8-0.7,16.5-0.7,29.2C747,135.6,747.3,146.4,747.9,155.1z M736.7,145.2
					c0-9.3-0.2-16.9-0.7-23c-2-1.4-4.5-2.1-7.4-2.1c-3.9,0-6.8,1.4-8.7,4.3c-1.9,2.8-2.9,6.3-2.9,10.5c0,3.7,0.9,6.8,2.8,9.5
					c1.8,2.7,4.4,4,7.7,4C731.9,148.3,735,147.3,736.7,145.2z"/>
				<path id="XMLID_2638_" class="st0" d="M796.1,130c0,1.5-0.1,3.4-0.3,5.8l-28.7,0.5c0.4,3.3,1.9,6,4.3,8.2
					c2.5,2.2,5.7,3.3,9.7,3.3c4.5,0,9.2-0.7,14.2-2l-0.9,8.5c-4.1,1.5-9.2,2.2-15.3,2.2c-7.7,0-13.6-2.1-17.6-6.3
					c-4.1-4.2-6.1-9.3-6.1-15.2c0-6.2,1.9-11.6,5.8-16.1c3.9-4.5,9.3-6.8,16.2-6.8c6.3,0,11,1.7,14.1,5
					C794.6,120.3,796.1,124.7,796.1,130z M785.7,129.6c0-6.7-2.9-10-8.7-10c-5.6,0-8.9,3.5-9.9,10.4L785.7,129.6z"/>
			</g>
		</g>
		<g id="XMLID_2972_">
			<path id="XMLID_2973_" class="st1" d="M585.6,196.4l-1.5,3.6l-13.5-8.1v-2.7l13.5-8.1l1.5,3.6l-10.7,5.6v0.4L585.6,196.4z"/>
			<path id="XMLID_2975_" class="st1" d="M597.9,179.6c0,1.3-0.4,2.3-1.2,3.2c-0.9,1-2,1.5-3.5,1.5s-2.7-0.5-3.5-1.5
				c-0.8-0.9-1.2-1.9-1.2-3.2c0-1.3,0.4-2.3,1.2-3.2c0.9-1,2-1.5,3.5-1.5s2.7,0.5,3.5,1.5C597.5,177.3,597.9,178.4,597.9,179.6z
				 M605.2,175.3c0,1.2-2.3,5.2-6.9,12.3c-4.6,7-6.9,11.3-6.9,12.8l-2.7-0.2c0-1.3,2.3-5.4,6.9-12.5c4.6-7.1,6.9-11.3,6.9-12.6
				L605.2,175.3z M595.3,179.7c0-0.7-0.2-1.3-0.5-1.8c-0.4-0.6-0.9-0.8-1.5-0.8c-0.6,0-1.1,0.3-1.5,0.8c-0.3,0.5-0.5,1.1-0.5,1.8
				c0,0.7,0.2,1.3,0.5,1.8c0.4,0.5,0.9,0.8,1.5,0.8c0.6,0,1.2-0.3,1.5-0.8C595.1,181,595.3,180.4,595.3,179.7z M605.7,195.9
				c0,1.3-0.4,2.3-1.2,3.2c-0.9,1-2,1.5-3.5,1.5c-1.5,0-2.7-0.5-3.5-1.4c-0.8-0.9-1.2-1.9-1.2-3.2c0-1.3,0.4-2.3,1.2-3.2
				c0.9-1,2-1.5,3.5-1.5c1.5,0,2.7,0.5,3.5,1.5C605.3,193.6,605.7,194.6,605.7,195.9z M603,196c0-0.7-0.2-1.3-0.5-1.8
				c-0.4-0.6-0.9-0.8-1.5-0.8c-0.6,0-1.1,0.3-1.5,0.8c-0.3,0.5-0.5,1.1-0.5,1.8c0,0.7,0.2,1.3,0.5,1.8c0.4,0.5,0.9,0.8,1.5,0.8
				c0.6,0,1.2-0.3,1.5-0.8C602.9,197.3,603,196.7,603,196z"/>
			<path id="XMLID_2981_" class="st1" d="M628,199.7c-2.9,0.8-5.3,1.2-7.3,1.2c-4.2,0-7.4-1.2-9.6-3.7c-2.2-2.4-3.3-5.4-3.3-8.9
				c0-3.7,1.2-6.8,3.5-9.5s5.6-4.1,9.8-4.1c2,0,3.7,0.2,5.2,0.6l-0.6,4.6c-1.9-0.5-3.6-0.8-5.2-0.8c-2.6,0-4.5,0.8-5.8,2.5
				c-1.3,1.7-1.9,3.7-1.9,6.1c0,2.5,0.7,4.6,2.1,6.5c1.4,1.8,3.4,2.8,5.9,2.8c0.7,0,1.5-0.1,2.4-0.2c-0.2-1.4-0.3-2.8-0.3-4.2
				c0-1.4-0.1-3-0.4-4.7h5.2c-0.1,2-0.1,4-0.1,6C627.9,195.3,627.9,197.2,628,199.7z"/>
			<path id="XMLID_2984_" class="st1" d="M651.8,200.4h-5.4c-1.4-4.6-2.5-7.4-3.3-8.5c-0.8-1.1-2-1.6-3.7-1.6c-0.7,0-1.4,0-2,0
				c0,3.3,0.1,6.7,0.2,10.1h-5.1c0.2-3.9,0.2-8.3,0.2-13.2c0-4.7-0.1-8.7-0.2-12.1h3.2c0.4,0,1.1,0,2.3-0.1c1.2,0,2.2-0.1,3.2-0.1
				c5.6,0,8.4,2,8.4,6.1c0,3.2-1.6,5.5-4.8,6.7v0.3c1.2,0.4,2.3,1.4,3.2,3.1C649,192.8,650.2,195.9,651.8,200.4z M644.9,182.5
				c0-2.6-1.6-3.9-4.7-3.9c-1.1,0-2.2,0.1-3,0.3c0.1,2,0.2,4.6,0.2,7.8c0.7,0,1.2,0,1.7,0C643,186.8,644.9,185.4,644.9,182.5z"/>
			<path id="XMLID_2988_" class="st1" d="M674.7,175.1c-0.1,4.3-0.2,8.7-0.2,13c0,8.6-3.3,12.9-10,12.9c-3.3,0-5.8-1-7.4-2.9
				c-1.7-1.9-2.5-5.3-2.5-10.2c0-4.3-0.1-8.6-0.2-12.8h5.2c-0.2,4.4-0.2,8.6-0.2,12.7c0,3.6,0.4,6,1.3,7.3c0.9,1.3,2.2,2,4,2
				c1.9,0,3.2-0.7,4-2c0.8-1.3,1.2-3.8,1.2-7.4c0-3.9-0.1-8.2-0.2-12.6H674.7z"/>
			<path id="XMLID_2990_" class="st1" d="M696.9,181.7c0,3.1-1.1,5.4-3.3,6.8c-2.2,1.5-4.8,2.2-8,2.2c-0.6,0-1,0-1.2,0
				c0,2.4,0.1,5.6,0.2,9.6h-5.2c0.2-3.7,0.2-8.1,0.2-13.2c0-4.7-0.1-8.7-0.2-12.1h3.2c0.4,0,1.3,0,2.6-0.1c1.3,0,2.4-0.1,3.3-0.1
				c2.3,0,4.3,0.6,5.9,1.7S696.9,179.5,696.9,181.7z M692.2,182.8c0-2.8-1.7-4.2-5.2-4.2c-0.9,0-1.8,0.1-2.7,0.3
				c0.1,2.4,0.2,5.2,0.2,8.3c0.3,0,0.7,0,1.1,0C690,187.3,692.2,185.8,692.2,182.8z"/>
			<path id="XMLID_2993_" class="st1" d="M722.5,187.3c0,4-1.1,7.3-3.4,9.9c-2.3,2.6-5.1,3.9-8.5,3.9c-3.2,0-5.9-1.2-8.1-3.6
				c-2.2-2.4-3.3-5.4-3.3-9.1c0-4,1.1-7.3,3.4-9.9c2.3-2.6,5.1-3.9,8.5-3.9c3.2,0,5.9,1.2,8.1,3.6
				C721.4,180.5,722.5,183.6,722.5,187.3z M717.4,187.8c0-2.7-0.7-4.9-2-6.6c-1.3-1.7-2.9-2.5-4.8-2.5c-1.8,0-3.3,0.8-4.5,2.5
				c-1.2,1.7-1.9,3.8-1.9,6.4c0,2.7,0.7,4.9,2,6.6c1.3,1.7,2.9,2.5,4.8,2.5c1.8,0,3.3-0.9,4.5-2.6
				C716.8,192.5,717.4,190.4,717.4,187.8z"/>
			<path id="XMLID_2996_" class="st1" d="M748.2,196.2l-0.4,4.2h-14l0.4-3.9c5.2-3,7.7-6.1,7.7-9.2c0-2.5-1.7-3.8-5-3.8
				c-0.9,0-1.8,0.1-2.8,0.3l0.3-3.6c1.1-0.3,2.6-0.4,4.5-0.4c2.5,0,4.4,0.6,5.7,1.7c1.3,1.1,2,2.7,2,4.6c0,2.4-0.9,4.5-2.6,6.3
				s-3.5,3.1-5.4,4v0.3C741.4,196.5,744.6,196.4,748.2,196.2z"/>
			<path id="XMLID_3028_" class="st1" d="M768.5,179.6c0,1.3-0.4,2.3-1.2,3.2c-0.9,1-2,1.5-3.5,1.5c-1.5,0-2.7-0.5-3.5-1.5
				c-0.8-0.9-1.2-1.9-1.2-3.2c0-1.3,0.4-2.3,1.2-3.2c0.9-1,2-1.5,3.5-1.5c1.5,0,2.7,0.5,3.5,1.5
				C768.1,177.3,768.5,178.4,768.5,179.6z M775.8,175.3c0,1.2-2.3,5.2-6.9,12.3c-4.6,7-6.9,11.3-6.9,12.8l-2.7-0.2
				c0-1.3,2.3-5.4,6.9-12.5c4.6-7.1,6.9-11.3,6.9-12.6L775.8,175.3z M765.9,179.7c0-0.7-0.2-1.3-0.5-1.8c-0.4-0.6-0.9-0.8-1.5-0.8
				c-0.6,0-1.1,0.3-1.5,0.8c-0.3,0.5-0.5,1.1-0.5,1.8c0,0.7,0.2,1.3,0.5,1.8c0.4,0.5,0.9,0.8,1.5,0.8c0.6,0,1.2-0.3,1.5-0.8
				C765.7,181,765.9,180.4,765.9,179.7z M776.3,195.9c0,1.3-0.4,2.3-1.2,3.2c-0.9,1-2,1.5-3.5,1.5s-2.7-0.5-3.5-1.4
				c-0.8-0.9-1.2-1.9-1.2-3.2c0-1.3,0.4-2.3,1.2-3.2c0.9-1,2-1.5,3.5-1.5s2.7,0.5,3.5,1.5C775.9,193.6,776.3,194.6,776.3,195.9z
				 M773.7,196c0-0.7-0.2-1.3-0.5-1.8c-0.4-0.6-0.9-0.8-1.5-0.8c-0.6,0-1.1,0.3-1.5,0.8c-0.3,0.5-0.5,1.1-0.5,1.8
				c0,0.7,0.2,1.3,0.5,1.8c0.4,0.5,0.9,0.8,1.5,0.8c0.6,0,1.2-0.3,1.5-0.8C773.5,197.3,773.7,196.7,773.7,196z"/>
			<path id="XMLID_3034_" class="st1" d="M794.1,192l-13.5,8.1l-1.5-3.6l10.7-5.6v-0.4l-10.7-5.6l1.5-3.6l13.5,8.1V192z"/>
		</g>
	</g>
	<g id="XMLID_2_">
		<path id="XMLID_3_" class="st2" d="M5.3,114.6c1.8-0.3,4.4-0.5,8-0.5c3.7,0,6.3,0.7,8,2.1c1.7,1.3,2.8,3.5,2.8,6.1
			c0,2.6-0.9,4.8-2.4,6.2c-2,1.9-5,2.8-8.5,2.8c-0.8,0-1.5,0-2-0.1v9.4H5.3V114.6z M11.2,126.5c0.5,0.1,1.1,0.2,2,0.2
			c3.2,0,5.1-1.6,5.1-4.3c0-2.4-1.7-3.9-4.6-3.9c-1.2,0-2,0.1-2.5,0.2V126.5z"/>
		<path id="XMLID_6_" class="st2" d="M52,127.1c0,8.6-5.2,13.8-12.9,13.8c-7.8,0-12.4-5.9-12.4-13.4c0-7.9,5-13.8,12.8-13.8
			C47.6,113.8,52,119.9,52,127.1z M33,127.5c0,5.1,2.4,8.8,6.4,8.8c4,0,6.3-3.8,6.3-8.9c0-4.7-2.3-8.8-6.4-8.8
			C35.4,118.5,33,122.4,33,127.5z"/>
		<path id="XMLID_9_" class="st2" d="M59.9,140.5l-6.2-26.3H60l2,10.8c0.6,3.1,1.1,6.5,1.6,9.2h0.1c0.4-2.8,1.1-6,1.7-9.2l2.2-10.8
			h6.3l2.1,11.1c0.6,3.1,1,5.9,1.4,8.8h0.1c0.4-2.9,1-6,1.5-9.1l2.1-10.8h6l-6.8,26.3H74l-2.2-11.3c-0.5-2.7-0.9-5.1-1.2-8.1h-0.1
			c-0.5,3-0.9,5.5-1.5,8.1l-2.5,11.3H59.9z"/>
		<path id="XMLID_11_" class="st2" d="M105.9,129.4h-9.7v6.2h10.8v4.9H90.3v-26.3h16.2v4.9H96.3v5.5h9.7V129.4z"/>
		<path id="XMLID_13_" class="st2" d="M111.1,114.6c1.9-0.3,4.8-0.5,7.9-0.5c3.9,0,6.6,0.6,8.5,2.1c1.6,1.2,2.4,3.1,2.4,5.5
			c0,3.4-2.4,5.7-4.6,6.5v0.1c1.8,0.7,2.8,2.5,3.5,4.9c0.8,3,1.6,6.4,2.1,7.4h-6.1c-0.4-0.7-1.1-2.9-1.8-6.1
			c-0.7-3.3-1.8-4.2-4.3-4.2H117v10.3h-5.9V114.6z M117,125.9h2.3c3,0,4.7-1.5,4.7-3.8c0-2.4-1.6-3.6-4.4-3.7
			c-1.4,0-2.3,0.1-2.7,0.2V125.9z"/>
		<path id="XMLID_16_" class="st2" d="M149.9,129.4h-9.7v6.2H151v4.9h-16.8v-26.3h16.2v4.9h-10.3v5.5h9.7V129.4z"/>
		<path id="XMLID_18_" class="st2" d="M155.1,114.6c2.2-0.4,5-0.5,8-0.5c5,0,8.2,0.9,10.8,2.8c2.7,2,4.4,5.3,4.4,9.9
			c0,5-1.8,8.5-4.4,10.6c-2.8,2.3-7,3.4-12.1,3.4c-3.1,0-5.3-0.2-6.7-0.4V114.6z M161,136.1c0.5,0.1,1.3,0.1,2.1,0.1
			c5.4,0,8.9-2.9,8.9-9.2c0-5.5-3.2-8.3-8.3-8.3c-1.3,0-2.2,0.1-2.7,0.2V136.1z"/>
		<path id="XMLID_21_" class="st2" d="M189.7,140.5c0.1-1.2,0.2-3.5,0.2-5.7v-22h5.9v10.9h0.1c1.1-1.6,3.1-2.7,5.8-2.7
			c4.6,0,7.9,3.8,7.9,9.6c0,6.9-4.4,10.3-8.7,10.3c-2.2,0-4.4-0.8-5.7-3.1H195l-0.2,2.7H189.7z M195.8,132.4c0,0.4,0,0.7,0.1,1.1
			c0.4,1.6,1.8,2.8,3.5,2.8c2.5,0,4.1-1.9,4.1-5.4c0-3-1.3-5.3-4.1-5.3c-1.6,0-3.1,1.2-3.5,2.9c-0.1,0.4-0.1,0.7-0.1,1.1V132.4z"/>
		<path id="XMLID_24_" class="st2" d="M217.3,121.5l2.8,9.4c0.3,1.1,0.7,2.5,0.9,3.5h0.1c0.3-1,0.6-2.5,0.9-3.5l2.3-9.4h6.4
			l-4.4,12.6c-2.7,7.6-4.6,10.6-6.7,12.5c-2.1,1.8-4.3,2.4-5.7,2.6l-1.2-5c0.7-0.1,1.7-0.5,2.6-1c0.9-0.5,1.9-1.4,2.5-2.4
			c0.2-0.3,0.3-0.6,0.3-0.9c0-0.2,0-0.5-0.3-1l-7-17.4H217.3z"/>
	</g>
</g>
</svg>
